<?xml version="1.0" encoding="utf-8"?>
<!-- Generator: Adobe Illustrator 23.0.1, SVG Export Plug-In . SVG Version: 6.00 Build 0)  -->
<svg version="1.1" id="Режим_изоляции"
	 xmlns="http://www.w3.org/2000/svg" xmlns:xlink="http://www.w3.org/1999/xlink" x="0px" y="0px" viewBox="0 0 133.5 34.5"
	 style="enable-background:new 0 0 133.5 34.5;" xml:space="preserve">
<style type="text/css">
	.st0{fill:#FFFFFF;}
</style>
<path class="st0" d="M33.6,15.9l-5.5,8.8c-0.6,0.9-1.1,2.1-1.1,2.1H27c0,0,0.1-1.3,0.1-2.3V13.6H24c0,0,0,17,0,17.5
	c3.6,0,5.2-2.8,5.2-2.8l5.3-8.6c0.6-0.9,1-2,1-2h0.1c0,0-0.1,1.2-0.1,2.3v11.2h3.1c0,0,0-16.9,0-17.5C34.7,13.6,33.6,15.9,33.6,15.9
	"/>
<path class="st0" d="M51.5,28.5c-0.5,0.3-1.9,0.5-3,0.5c-2.7,0-4.1-0.5-4.1-2.3c0-3.1,3.5-3.4,7.1-3.6V28.5 M48.2,13.3
	c-2.3,0-4.7,0.6-6,1.2l0.9,2.4c1.2-0.6,3.1-1.1,4.8-1.1c2.2,0,3.7,0.8,3.7,3v1.8c-5.2,0.3-10.4,1.2-10.4,6.1c0,3.4,2.5,4.8,7.5,4.8
	c2.4,0,5-0.6,6.2-1.2V19.2C54.9,14.9,52.4,13.3,48.2,13.3z"/>
<polyline class="st0" points="100.4,13.6 100.4,21.1 93.9,21.1 93.9,13.6 90.4,13.6 90.4,31.2 93.9,31.2 93.9,23.5 100.4,23.5 
	100.4,31.2 104,31.2 104,13.6 100.4,13.6 "/>
<path class="st0" d="M80.2,28.6c-2.7,0-4.1-2.5-4.1-6.3c0-3.8,1.4-6.2,4.1-6.2c2.7,0,4.1,2.5,4.1,6.2C84.3,26.1,82.9,28.6,80.2,28.6
	 M80.2,13.3c-4.9,0-7.6,3.9-7.6,9.1c0,5.2,2.7,9.1,7.6,9.1c4.9,0,7.6-3.9,7.6-9.1C87.8,17.2,85.1,13.3,80.2,13.3z"/>
<path class="st0" d="M15.9,28.3H4.7C7,25.8,8.3,23.2,9,19c0.3-1.5,0.5-6,0.6-7.7h6.3C15.9,14.1,15.9,28.3,15.9,28.3 M19.4,8.2
	c0,0-7.6,0-8.3,0c-2.3,0-4.4,1.4-4.7,4.5c-0.2,2.4-0.6,4.8-0.8,6.1h0c-0.8,4.5-2.3,7.3-5.6,10v5.7c1.8,0,3.1-0.9,3.1-2.4v-0.9h15.4
	v0.9c0,1.6,1.3,2.4,3.1,2.4v-6.2h-2.1V8.2z"/>
<path class="st0" d="M66.1,21.8c1.6-1,2.6-2.5,3.2-3.8l1.9-4.3c0,0-3.1-1.3-4.5,1.7c-1.9,4.5-2.9,5-5.2,5.2v-6.9h-3.5v17.5h3.5v-8.3
	l0.1,0c0.1,0,0.2,0,0.2,0l0,0c1.9,0.1,3.3,1.4,4.1,3l2.7,5.3h3.9l-3.1-5.8C68.8,23.8,67.7,22.6,66.1,21.8"/>
<path class="st0" d="M110.6,22.9h21.7V1.1h-21.7V22.9z M133.5,24h-24V0h24V24z"/>
<path class="st0" d="M109.5,23.4c0-0.2,0-13.2,11.1-17.7c5.5-2.2,9.4-2.1,11.9-5.5l0.9,0.7c-2.9,3.9-7.2,3.8-12.3,5.9
	c-10.3,4.1-10.4,16.5-10.4,16.6h-0.6l-0.4,0.4C109.7,23.8,109.6,23.8,109.5,23.4"/>
</svg>
