<svg id="Слой_1" data-name="Слой 1" xmlns="http://www.w3.org/2000/svg" viewBox="0 0 70 70"><defs><style>.cls-1{fill:#51ba63;}</style></defs><title>block_2</title><path class="cls-1" d="M33.62,21.5a7.82,7.82,0,0,1-7.4-5.29.74.74,0,0,1,.46-1,.76.76,0,0,1,1,.47,6.31,6.31,0,0,0,6,4.27.75.75,0,0,1,0,1.5Z"/><path class="cls-1" d="M24.06,20.64a.75.75,0,0,1,0-1.5,2.88,2.88,0,0,0,2.73-1.95.75.75,0,0,1,.95-.47.76.76,0,0,1,.47,1A4.39,4.39,0,0,1,24.06,20.64Z"/><path class="cls-1" d="M26.78,37.11a.78.78,0,0,1-.55-.23l-4.62-5a.71.71,0,0,1-.2-.54.78.78,0,0,1,.25-.53L23.75,29a.75.75,0,0,1,1,0l4.38,4.36a.74.74,0,0,1,.07,1l-1.85,2.47a.72.72,0,0,1-.56.3Zm-3.55-5.64,3.49,3.73L27.64,34l-3.41-3.4Z"/><path class="cls-1" d="M14.48,37.43h-.15a.75.75,0,0,1-.58-.88,9.72,9.72,0,0,1,1.44-3.41c1-1.39,5.5-2.23,6.85-2.45a.75.75,0,1,1,.24,1.48c-2.47.41-5.42,1.24-5.89,1.86a8.48,8.48,0,0,0-1.17,2.81A.75.75,0,0,1,14.48,37.43Z"/><path class="cls-1" d="M30.48,37.11h0a.74.74,0,0,1-.56-.3L28,34.34a.76.76,0,0,1,.07-1L32.48,29a.75.75,0,0,1,1,0l2.1,1.88a.73.73,0,0,1,.24.53.71.71,0,0,1-.2.54l-4.62,5A.75.75,0,0,1,30.48,37.11ZM29.62,34l.93,1.23L34,31.47l-1-.9Z"/><path class="cls-1" d="M42.78,37.43a.74.74,0,0,1-.73-.6A8.6,8.6,0,0,0,40.87,34c-.46-.62-3.42-1.45-5.89-1.86a.75.75,0,0,1-.62-.86.76.76,0,0,1,.87-.62c1.34.22,5.81,1.06,6.84,2.45a9.83,9.83,0,0,1,1.45,3.41.75.75,0,0,1-.59.88Z"/><path class="cls-1" d="M28.63,28.32A7.31,7.31,0,0,1,21.34,21V20a7.3,7.3,0,1,1,14.59,0v1A7.32,7.32,0,0,1,28.63,28.32Zm0-14.09A5.8,5.8,0,0,0,22.84,20v1a5.8,5.8,0,1,0,11.59,0V20A5.8,5.8,0,0,0,28.63,14.23Z"/><path class="cls-1" d="M24.68,30.57a.75.75,0,0,1-.75-.75V27.17a.75.75,0,0,1,1.5,0v2.65A.74.74,0,0,1,24.68,30.57Z"/><path class="cls-1" d="M32.58,30.57a.75.75,0,0,1-.75-.75V27.17a.75.75,0,0,1,1.5,0v2.65A.75.75,0,0,1,32.58,30.57Z"/><path class="cls-1" d="M28.09,49.6A21.5,21.5,0,1,1,43.3,12.9h0A21.5,21.5,0,0,1,28.09,49.6Zm0-41.5A20,20,0,0,0,14,42.24,20,20,0,1,0,42.23,14h0A19.83,19.83,0,0,0,28.09,8.1Z"/><path class="cls-1" d="M45.12,45.87a.77.77,0,0,1-.53-.21L42.23,43.3a.75.75,0,0,1,0-1.06.77.77,0,0,1,1.07,0l2.35,2.35a.77.77,0,0,1,0,1.07A.76.76,0,0,1,45.12,45.87Z"/><path class="cls-1" d="M59,63.4a3.56,3.56,0,0,1-2.53-1l-12-12a3.6,3.6,0,0,1,0-5.07l.8-.79a3.66,3.66,0,0,1,5.07,0l12,12a3.59,3.59,0,0,1,0,5.07l-.79.8A3.6,3.6,0,0,1,59,63.4ZM47.83,45a2,2,0,0,0-1.48.61l-.8.79a2.09,2.09,0,0,0,0,2.95l12,12a2.15,2.15,0,0,0,3,0l.79-.8h0a2.09,2.09,0,0,0,0-3l-12-12A2,2,0,0,0,47.83,45Z"/></svg>