<svg id="Слой_1" data-name="Слой 1" xmlns="http://www.w3.org/2000/svg" viewBox="0 0 70 70"><defs><style>.cls-1{fill:#51ba63;}</style></defs><title>block_3</title><path class="cls-1" d="M39.87,47.32a.75.75,0,0,1-.3-1.44,13.42,13.42,0,0,0,8.08-12.32V23.79a13.44,13.44,0,0,0-26.88,0V36.86a.75.75,0,0,1-1.5,0V23.79a14.94,14.94,0,0,1,29.88,0v9.77a15,15,0,0,1-9,13.7A.8.8,0,0,1,39.87,47.32Z"/><path class="cls-1" d="M29.85,43h-.13a9.33,9.33,0,0,1-2.37-1.3A11,11,0,0,1,23,32.85V30.58a11,11,0,0,1,4.19-8.68.75.75,0,1,1,.94,1.17,9.53,9.53,0,0,0-3.63,7.51v2.27a9.54,9.54,0,0,0,3.74,7.59,9.89,9.89,0,0,0,1.77,1,.78.78,0,0,1,.57.89A.75.75,0,0,1,29.85,43Z"/><path class="cls-1" d="M40.65,41.79a.77.77,0,0,1-.6-.3.75.75,0,0,1,.14-1.05,9.51,9.51,0,0,0,3.74-7.59V30.58a.75.75,0,1,1,1.5,0v2.27a11,11,0,0,1-4.32,8.78A.8.8,0,0,1,40.65,41.79Z"/><path class="cls-1" d="M47.74,30.94A20.7,20.7,0,0,1,28.16,17a.75.75,0,0,1,.47-.95.74.74,0,0,1,.95.46,19.19,19.19,0,0,0,18.16,13,.75.75,0,0,1,0,1.5Z"/><path class="cls-1" d="M19.64,37.7a3.79,3.79,0,0,1-3.79-3.78V29a3.79,3.79,0,0,1,3.79-3.79.75.75,0,0,1,0,1.5A2.3,2.3,0,0,0,17.35,29v5a2.29,2.29,0,0,0,2.29,2.28.75.75,0,0,1,0,1.5Z"/><path class="cls-1" d="M48.71,37.7a.75.75,0,1,1,0-1.5A2.29,2.29,0,0,0,51,33.92V29a2.3,2.3,0,0,0-2.29-2.29.75.75,0,0,1,0-1.5A3.79,3.79,0,0,1,52.5,29v5A3.79,3.79,0,0,1,48.71,37.7Z"/><path class="cls-1" d="M27.48,49.7a.75.75,0,0,1-.75-.75V41a.75.75,0,0,1,1.5,0V49A.74.74,0,0,1,27.48,49.7Z"/><path class="cls-1" d="M37.23,49.7H34.85a3,3,0,0,1,0-5.91h2.38a3,3,0,1,1,0,5.91Zm-2.38-4.41a1.46,1.46,0,0,0,0,2.91h2.38a1.46,1.46,0,1,0,0-2.91Z"/><path class="cls-1" d="M32,60.63a.76.76,0,0,1-.55-.23L24.1,52.49a.74.74,0,0,1-.2-.55.73.73,0,0,1,.24-.52l3.35-3a.75.75,0,0,1,1,0l7,7a.76.76,0,0,1,.07,1l-3,3.95a.74.74,0,0,1-.56.3ZM25.72,52,32,58.72,34,56l-6-6Z"/><path class="cls-1" d="M12.37,61.14h-.15a.75.75,0,0,1-.59-.89A15.4,15.4,0,0,1,13.86,55c1.59-2.13,9.16-3.48,10.66-3.73a.74.74,0,0,1,.87.61.76.76,0,0,1-.62.87c-3.25.53-8.76,1.87-9.71,3.15a14,14,0,0,0-2,4.67A.74.74,0,0,1,12.37,61.14Z"/><path class="cls-1" d="M38,60.63h0a.72.72,0,0,1-.56-.3l-3-3.95a.75.75,0,0,1,.07-1l7-7a.76.76,0,0,1,1,0l3.35,3a.77.77,0,0,1,.24.52.74.74,0,0,1-.2.55L38.5,60.4A.74.74,0,0,1,38,60.63ZM36,56l2,2.72L44.28,52,42,50Z"/><path class="cls-1" d="M57.63,61.14a.74.74,0,0,1-.73-.6,14.18,14.18,0,0,0-2-4.67c-1-1.28-6.46-2.62-9.71-3.15a.75.75,0,1,1,.25-1.48c1.5.25,9.07,1.6,10.66,3.73a15.4,15.4,0,0,1,2.23,5.27.75.75,0,0,1-.59.89Z"/></svg>