<svg id="Слой_1" data-name="Слой 1" xmlns="http://www.w3.org/2000/svg" xmlns:xlink="http://www.w3.org/1999/xlink" viewBox="0 0 150 150"><defs><style>.cls-1,.cls-5,.cls-6,.cls-7,.cls-8,.cls-9{fill:none;}.cls-2{clip-path:url(#clip-path);}.cls-3{fill:#fff;}.cls-4{fill:#ddf1fd;}.cls-5,.cls-9{stroke:#00ace9;}.cls-5,.cls-6,.cls-7,.cls-8,.cls-9{stroke-linecap:round;stroke-linejoin:round;}.cls-6,.cls-7,.cls-8{stroke:#1d71b8;}.cls-7{stroke-width:2px;}.cls-8,.cls-9{stroke-width:0.75px;}</style><clipPath id="clip-path"><rect class="cls-1" x="22.71" y="31.42" width="104.58" height="87.17"/></clipPath></defs><title>ico_2</title><g class="cls-2"><path class="cls-3" d="M92.85,84.19a17.8,17.8,0,1,1-35.6,0c0-9.84,17.8-36.18,17.8-36.18s17.8,26.34,17.8,36.18"/><path class="cls-4" d="M91.79,82.51a15.11,15.11,0,0,1-30.22,0c0-8.34,15.11-30.7,15.11-30.7s15.11,22.36,15.11,30.7"/><path class="cls-5" d="M108.27,47.59A43.09,43.09,0,0,0,31.93,75L23.21,64.89"/><path class="cls-6" d="M41.73,102.41A43.1,43.1,0,0,0,118.07,75l8.72,10.11"/><path class="cls-7" d="M93,84.19a17.81,17.81,0,0,1-35.61,0C57.39,74.35,75.2,48,75.2,48S93,74.35,93,84.19Z"/><path class="cls-8" d="M62,85.08c0-.3,0-.59,0-.89"/><path class="cls-8" d="M62.3,87.1c0-.16-.07-.32-.1-.48"/><path class="cls-8" d="M63,89.33c-.1-.23-.2-.47-.28-.71"/><path class="cls-8" d="M75.2,97.4a13.22,13.22,0,0,1-11.63-6.91"/><path class="cls-3" d="M99.71,65.71A12.26,12.26,0,1,1,87.45,53.46,12.26,12.26,0,0,1,99.71,65.71"/><circle class="cls-8" cx="87.45" cy="65.71" r="12.25"/><path class="cls-3" d="M95.05,65.71a7.6,7.6,0,1,1-7.6-7.6,7.6,7.6,0,0,1,7.6,7.6"/><path class="cls-8" d="M95.05,65.71a7.6,7.6,0,1,1-7.6-7.6A7.6,7.6,0,0,1,95.05,65.71Z"/><path class="cls-3" d="M114.39,48a6.13,6.13,0,1,1-6.12-6.13A6.13,6.13,0,0,1,114.39,48"/><path class="cls-8" d="M114.39,48a6.13,6.13,0,1,1-6.12-6.13A6.13,6.13,0,0,1,114.39,48Z"/><path class="cls-3" d="M112.07,48a3.81,3.81,0,1,1-3.8-3.8,3.8,3.8,0,0,1,3.8,3.8"/><path class="cls-8" d="M112.07,48a3.81,3.81,0,1,1-3.8-3.8A3.8,3.8,0,0,1,112.07,48Z"/><path class="cls-3" d="M113.16,64.57a3.07,3.07,0,1,1-3.06-3.07,3.06,3.06,0,0,1,3.06,3.07"/><path class="cls-9" d="M113.16,64.57a3.07,3.07,0,1,1-3.06-3.07A3.06,3.06,0,0,1,113.16,64.57Z"/><path class="cls-3" d="M79.65,74a3.8,3.8,0,1,1-3.8-3.8,3.8,3.8,0,0,1,3.8,3.8"/><circle class="cls-9" cx="75.85" cy="73.97" r="3.8"/></g></svg>