<svg id="Слой_1" data-name="Слой 1" xmlns="http://www.w3.org/2000/svg" xmlns:xlink="http://www.w3.org/1999/xlink" viewBox="0 0 150 150"><defs><style>.cls-1,.cls-4,.cls-5,.cls-6,.cls-8{fill:none;}.cls-2{clip-path:url(#clip-path);}.cls-3{fill:#fff;}.cls-4,.cls-5,.cls-8{stroke:#1d71b8;}.cls-4,.cls-5,.cls-6,.cls-8{stroke-linecap:round;stroke-linejoin:round;}.cls-4{stroke-width:0.75px;}.cls-5{stroke-width:2px;}.cls-6{stroke:#00ace9;stroke-width:0.5px;}.cls-7{fill:#ddf1fd;}</style><clipPath id="clip-path"><rect class="cls-1" x="31.28" y="31.28" width="87.43" height="87.43"/></clipPath></defs><title>ico_7</title><g class="cls-2"><path class="cls-3" d="M94.25,61a5,5,0,1,1-5-5,5,5,0,0,1,5,5"/><path class="cls-4" d="M94.25,61a5,5,0,1,1-5-5A5,5,0,0,1,94.25,61Z"/><path class="cls-3" d="M92.37,61a3.08,3.08,0,1,1-3.08-3.08A3.07,3.07,0,0,1,92.37,61"/><circle class="cls-4" cx="89.29" cy="61.02" r="3.08"/><circle class="cls-5" cx="75" cy="75" r="42.72"/><path class="cls-6" d="M112.12,75A37.12,37.12,0,1,1,75,37.88,37.12,37.12,0,0,1,112.12,75Z"/><path class="cls-7" d="M76.48,71.76a5.09,5.09,0,1,1-5.09-5.09,5.09,5.09,0,0,1,5.09,5.09"/><path class="cls-7" d="M106.13,73.65a3.3,3.3,0,1,1-3.3-3.3,3.3,3.3,0,0,1,3.3,3.3"/><path class="cls-7" d="M52.22,74a3.3,3.3,0,1,1-3.3-3.3,3.3,3.3,0,0,1,3.3,3.3"/><path class="cls-7" d="M74,52.23a7.68,7.68,0,1,1-7.67-7.67A7.67,7.67,0,0,1,74,52.23"/><path class="cls-3" d="M71.39,50.7A3.37,3.37,0,1,1,68,47.34a3.36,3.36,0,0,1,3.36,3.36"/><path class="cls-8" d="M74,52.23a7.68,7.68,0,1,1-7.67-7.67A7.67,7.67,0,0,1,74,52.23Z"/><path class="cls-4" d="M70.36,52.23a4,4,0,1,1-4-4A4,4,0,0,1,70.36,52.23Z"/><path class="cls-7" d="M67.71,89.26A7.68,7.68,0,1,1,60,81.58a7.67,7.67,0,0,1,7.67,7.68"/><path class="cls-3" d="M65.07,87.73a3.37,3.37,0,1,1-3.36-3.37,3.35,3.35,0,0,1,3.36,3.37"/><path class="cls-8" d="M67.71,89.26A7.68,7.68,0,1,1,60,81.58,7.67,7.67,0,0,1,67.71,89.26Z"/><path class="cls-4" d="M64,89.26a4,4,0,1,1-4-4A4,4,0,0,1,64,89.26Z"/><path class="cls-7" d="M99.5,91.54A11.48,11.48,0,1,1,88,80.07,11.47,11.47,0,0,1,99.5,91.54"/><path class="cls-3" d="M95.55,89.26a5,5,0,1,1-5-5,5,5,0,0,1,5,5"/><path class="cls-8" d="M99.5,91.54A11.48,11.48,0,1,1,88,80.07,11.47,11.47,0,0,1,99.5,91.54Z"/><path class="cls-4" d="M94,91.54a6,6,0,1,1-6-6A6,6,0,0,1,94,91.54Z"/></g></svg>