<svg id="Слой_1" data-name="Слой 1" xmlns="http://www.w3.org/2000/svg" xmlns:xlink="http://www.w3.org/1999/xlink" viewBox="0 0 150 150"><defs><style>.cls-1,.cls-5,.cls-6,.cls-7{fill:none;}.cls-2{clip-path:url(#clip-path);}.cls-3{fill:#ddf1fd;}.cls-4{fill:#fff;}.cls-5,.cls-6,.cls-7{stroke:#1d71b8;stroke-linecap:round;stroke-linejoin:round;}.cls-6{stroke-width:0.75px;}.cls-7{stroke-width:2px;}</style><clipPath id="clip-path"><rect class="cls-1" x="42.5" y="28.6" width="65" height="92.8"/></clipPath></defs><title>ico_10</title><g class="cls-2"><path class="cls-3" d="M76.36,50.79A15.51,15.51,0,1,1,60.85,35.28,15.51,15.51,0,0,1,76.36,50.79"/><path class="cls-3" d="M107,70.78a7.68,7.68,0,1,1-7.68-7.67A7.68,7.68,0,0,1,107,70.78"/><path class="cls-4" d="M104.36,69.26A3.37,3.37,0,1,1,101,65.89a3.37,3.37,0,0,1,3.37,3.37"/><path class="cls-5" d="M107,70.78a7.68,7.68,0,1,1-7.68-7.67A7.68,7.68,0,0,1,107,70.78Z"/><path class="cls-6" d="M50.88,52.23a4,4,0,1,1-4-4A4,4,0,0,1,50.88,52.23Z"/><path class="cls-6" d="M81.73,89.52a4,4,0,1,1-4-4A4,4,0,0,1,81.73,89.52Z"/><path class="cls-7" d="M80.78,68,91.53,89.63a11.39,11.39,0,0,1-10.2,16.46H59.72A11.39,11.39,0,0,1,49.54,89.58l2-3.88"/><line class="cls-7" x1="44.45" y1="80.19" x2="58.77" y2="90.22"/><rect class="cls-3" x="55.44" y="52.09" width="26.74" height="15.31" transform="translate(-19.6 81.83) rotate(-55)"/><rect class="cls-3" x="45.51" y="50.38" width="54.91" height="9.72" transform="translate(-14.13 83.32) rotate(-55)"/><rect class="cls-4" x="52.72" y="55.79" width="28.39" height="4.86" transform="translate(-19.16 79.62) rotate(-54.99)"/><rect class="cls-4" x="57.38" y="60.27" width="28.39" height="2.43" transform="translate(-19.85 84.83) rotate(-54.99)"/><rect class="cls-7" x="54.52" y="51.62" width="29.16" height="17.21" transform="matrix(0.57, -0.82, 0.82, 0.57, -19.86, 82.28)"/><rect class="cls-7" x="73.37" y="35.25" width="19.18" height="10.34" transform="translate(2.26 85.2) rotate(-55)"/><rect class="cls-7" x="55.13" y="69.91" width="7.12" height="10.34" transform="translate(-36.47 80.09) rotate(-55)"/><line class="cls-6" x1="58.87" y1="71.67" x2="55.48" y2="76.51"/><line class="cls-6" x1="61.61" y1="73.59" x2="58.22" y2="78.43"/><polygon class="cls-7" points="80.2 114.45 60.85 114.45 64.06 106.09 76.99 106.09 80.2 114.45"/><line class="cls-7" x1="51.39" y1="120.4" x2="89.66" y2="120.4"/><path class="cls-4" d="M83.69,62.05a6,6,0,1,1-6-6,6,6,0,0,1,6,6"/><path class="cls-7" d="M83.69,62.05a6,6,0,1,1-6-6A6,6,0,0,1,83.69,62.05Z"/></g></svg>