<svg id="Слой_1" data-name="Слой 1" xmlns="http://www.w3.org/2000/svg" xmlns:xlink="http://www.w3.org/1999/xlink" viewBox="0 0 150 150"><defs><style>.cls-1,.cls-2,.cls-6{fill:none;}.cls-2{stroke:#00ace9;stroke-width:0.5px;}.cls-2,.cls-6{stroke-linecap:round;stroke-linejoin:round;}.cls-3{clip-path:url(#clip-path);}.cls-4{fill:#ddf1fd;}.cls-5{fill:#fff;}.cls-6{stroke:#1d71b8;}</style><clipPath id="clip-path"><rect class="cls-1" x="24.76" y="25.78" width="98.5" height="98.45"/></clipPath></defs><title>ico_1</title><polygon class="cls-2" points="63.64 33.26 47.16 72.12 79.64 115.55 125.24 86.28 116 45.12 63.64 33.26"/><polyline class="cls-2" points="63.64 33.26 86.2 73.53 79.64 115.55"/><polyline class="cls-2" points="47.16 72.12 87.63 73.53 116 45.12"/><line class="cls-2" x1="125.24" y1="86.28" x2="87.63" y2="73.53"/><g class="cls-3"><path class="cls-4" d="M94,73.53A17.14,17.14,0,1,1,76.88,56.39,17.14,17.14,0,0,1,94,73.53"/><path class="cls-5" d="M88.13,70.12a7.52,7.52,0,1,1-7.52-7.52,7.52,7.52,0,0,1,7.52,7.52"/><circle class="cls-6" cx="76.88" cy="73.53" r="17.14"/><path class="cls-5" d="M60.13,33.26A7.24,7.24,0,1,1,52.89,26a7.24,7.24,0,0,1,7.24,7.23"/><circle class="cls-2" cx="52.89" cy="33.26" r="7.24"/><path class="cls-5" d="M122.75,86.28A8.26,8.26,0,1,1,114.5,78a8.26,8.26,0,0,1,8.25,8.25"/><path class="cls-6" d="M122.75,86.28A8.26,8.26,0,1,1,114.5,78,8.26,8.26,0,0,1,122.75,86.28Z"/><path class="cls-5" d="M112.49,45.12a7.24,7.24,0,1,1-7.24-7.24,7.24,7.24,0,0,1,7.24,7.24"/><path class="cls-2" d="M112.49,45.12a7.24,7.24,0,1,1-7.24-7.24A7.24,7.24,0,0,1,112.49,45.12Z"/><path class="cls-4" d="M47.78,71.8A11.37,11.37,0,1,1,36.41,60.43,11.37,11.37,0,0,1,47.78,71.8"/><path class="cls-5" d="M43.87,69.53a5,5,0,1,1-5-5,5,5,0,0,1,5,5"/><path class="cls-6" d="M47.57,72.1A11.16,11.16,0,1,1,36.41,60.94,11.16,11.16,0,0,1,47.57,72.1Z"/><path class="cls-4" d="M77.83,115a8.67,8.67,0,1,1-8.67-8.67A8.67,8.67,0,0,1,77.83,115"/><path class="cls-5" d="M74.85,113.25a3.81,3.81,0,1,1-3.81-3.8,3.82,3.82,0,0,1,3.81,3.8"/><circle class="cls-6" cx="69.16" cy="115.21" r="8.52"/></g></svg>