<svg id="Слой_1" data-name="Слой 1" xmlns="http://www.w3.org/2000/svg" xmlns:xlink="http://www.w3.org/1999/xlink" viewBox="0 0 150 150"><defs><style>.cls-1,.cls-3,.cls-4,.cls-7,.cls-8,.cls-9{fill:none;}.cls-2{clip-path:url(#clip-path);}.cls-3,.cls-7,.cls-8,.cls-9{stroke:#1d71b8;}.cls-3,.cls-4,.cls-7,.cls-8,.cls-9{stroke-linecap:round;stroke-linejoin:round;}.cls-3{stroke-width:2px;}.cls-4{stroke:#00ace9;}.cls-4,.cls-8{stroke-width:0.5px;}.cls-5{fill:#ddf1fd;}.cls-6{fill:#fff;}.cls-9{stroke-width:0.75px;}</style><clipPath id="clip-path"><rect class="cls-1" x="28.83" y="31.28" width="92.34" height="87.43"/></clipPath></defs><title>ico_6</title><g class="cls-2"><circle class="cls-3" cx="72.55" cy="75" r="42.72"/><circle class="cls-4" cx="72.55" cy="75" r="37.12"/><path class="cls-5" d="M71.09,90.79a7.68,7.68,0,1,1-7.68-7.68,7.68,7.68,0,0,1,7.68,7.68"/><path class="cls-6" d="M68.45,89.26a3.37,3.37,0,1,1-3.37-3.37,3.37,3.37,0,0,1,3.37,3.37"/><path class="cls-7" d="M71.09,90.79a7.68,7.68,0,1,1-7.68-7.68A7.68,7.68,0,0,1,71.09,90.79Z"/><path class="cls-5" d="M79.91,52.23A5.27,5.27,0,1,1,74.64,47a5.27,5.27,0,0,1,5.27,5.26"/><path class="cls-6" d="M78.1,51.18a2.31,2.31,0,1,1-2.31-2.31,2.31,2.31,0,0,1,2.31,2.31"/><path class="cls-7" d="M79.91,52.23A5.27,5.27,0,1,1,74.64,47,5.27,5.27,0,0,1,79.91,52.23Z"/><path class="cls-5" d="M90.14,71.16a8.91,8.91,0,1,1-8.91-8.9,8.91,8.91,0,0,1,8.91,8.9"/><path class="cls-5" d="M88.3,95.18A3.24,3.24,0,1,1,85.06,92a3.24,3.24,0,0,1,3.24,3.23"/><path class="cls-5" d="M61.67,65.59a7.18,7.18,0,1,1-7.17-7.17,7.17,7.17,0,0,1,7.17,7.17"/><path class="cls-6" d="M59.21,64.16A3.15,3.15,0,1,1,56.06,61a3.15,3.15,0,0,1,3.15,3.14"/><circle class="cls-7" cx="54.5" cy="65.59" r="7.18"/><line class="cls-8" x1="54.22" y1="58.21" x2="54.22" y2="55.54"/><line class="cls-8" x1="54.22" y1="75.65" x2="54.22" y2="72.98"/><line class="cls-8" x1="46.83" y1="65.59" x2="44.16" y2="65.59"/><line class="cls-8" x1="64.27" y1="65.59" x2="61.6" y2="65.59"/><line class="cls-8" x1="48.99" y1="60.37" x2="47.11" y2="58.48"/><line class="cls-8" x1="61.33" y1="72.7" x2="59.44" y2="70.81"/><line class="cls-8" x1="48.99" y1="70.81" x2="47.11" y2="72.7"/><line class="cls-8" x1="61.33" y1="58.48" x2="59.44" y2="60.37"/><line class="cls-8" x1="51.39" y1="58.77" x2="50.37" y2="56.3"/><line class="cls-8" x1="58.06" y1="74.88" x2="57.04" y2="72.41"/><line class="cls-8" x1="47.39" y1="68.42" x2="44.93" y2="69.44"/><line class="cls-8" x1="63.51" y1="61.74" x2="61.04" y2="62.77"/><line class="cls-8" x1="47.39" y1="62.77" x2="44.93" y2="61.74"/><line class="cls-8" x1="63.51" y1="69.44" x2="61.04" y2="68.42"/><line class="cls-8" x1="51.39" y1="72.41" x2="50.37" y2="74.88"/><line class="cls-8" x1="58.06" y1="56.3" x2="57.04" y2="58.77"/><path class="cls-5" d="M100.39,83.72A3.72,3.72,0,1,1,96.67,80a3.72,3.72,0,0,1,3.72,3.72"/><path class="cls-6" d="M99.11,83a1.63,1.63,0,1,1-1.63-1.63A1.63,1.63,0,0,1,99.11,83"/><path class="cls-7" d="M100.39,83.72A3.72,3.72,0,1,1,96.67,80,3.72,3.72,0,0,1,100.39,83.72Z"/><line class="cls-8" x1="96.53" y1="79.89" x2="96.53" y2="78.51"/><line class="cls-8" x1="96.53" y1="88.92" x2="96.53" y2="87.54"/><line class="cls-8" x1="92.71" y1="83.72" x2="91.32" y2="83.72"/><line class="cls-8" x1="101.73" y1="83.72" x2="100.35" y2="83.72"/><line class="cls-8" x1="93.82" y1="81.01" x2="92.85" y2="80.04"/><line class="cls-8" x1="100.21" y1="87.4" x2="99.23" y2="86.42"/><line class="cls-8" x1="93.82" y1="86.42" x2="92.85" y2="87.4"/><line class="cls-8" x1="100.21" y1="80.04" x2="99.23" y2="81.01"/><line class="cls-8" x1="95.06" y1="80.19" x2="94.53" y2="78.91"/><line class="cls-8" x1="98.52" y1="88.52" x2="97.99" y2="87.25"/><line class="cls-8" x1="93" y1="85.18" x2="91.72" y2="85.71"/><line class="cls-8" x1="101.33" y1="81.72" x2="100.06" y2="82.25"/><line class="cls-8" x1="93" y1="82.25" x2="91.72" y2="81.72"/><line class="cls-8" x1="101.33" y1="85.71" x2="100.06" y2="85.18"/><line class="cls-8" x1="95.06" y1="87.25" x2="94.53" y2="88.52"/><line class="cls-8" x1="98.52" y1="78.91" x2="97.99" y2="80.19"/><rect class="cls-6" x="106.17" y="44.54" width="14" height="16.57"/><rect class="cls-6" x="107.6" y="61.11" width="10.34" height="40.51"/><rect class="cls-5" x="106.17" y="49.02" width="9.11" height="13.09"/><path class="cls-5" d="M107.54,61.11c0,15.15,0,15.24,0,15.33v25.48a3.54,3.54,0,1,0,7.08,0V76.44c0-.09,0-.18,0-15.33Z"/><line class="cls-7" x1="111.9" y1="72.4" x2="107.35" y2="72.4"/><line class="cls-7" x1="111.9" y1="84.92" x2="107.35" y2="84.92"/><line class="cls-7" x1="111.9" y1="78.66" x2="107.35" y2="78.66"/><line class="cls-7" x1="111.9" y1="91.18" x2="107.35" y2="91.18"/><line class="cls-7" x1="111.9" y1="97.44" x2="107.35" y2="97.44"/><path class="cls-3" d="M107.54,61.48c0,.14,0,.27,0,.41v38.25a5.32,5.32,0,1,0,10.63,0V61.89c0-.14,0-.27,0-.41Z"/><rect class="cls-3" x="105.5" y="44.54" width="14.67" height="16.57"/><line class="cls-9" x1="110.39" y1="44.54" x2="110.39" y2="61.11"/><line class="cls-9" x1="115.28" y1="44.54" x2="115.28" y2="61.11"/></g></svg>