<svg id="Слой_1" data-name="Слой 1" xmlns="http://www.w3.org/2000/svg" xmlns:xlink="http://www.w3.org/1999/xlink" viewBox="0 0 150 150"><defs><style>.cls-1,.cls-3,.cls-6,.cls-7,.cls-9{fill:none;}.cls-2{clip-path:url(#clip-path);}.cls-3,.cls-7{stroke:#1d71b8;}.cls-3,.cls-6,.cls-7,.cls-9{stroke-linecap:round;stroke-linejoin:round;}.cls-3,.cls-9{stroke-width:2px;}.cls-4{fill:#ddf1fd;}.cls-5{fill:#fff;}.cls-6,.cls-9{stroke:#00ace9;}.cls-7{stroke-width:0.75px;}.cls-8{fill:#1e71b8;}</style><clipPath id="clip-path"><rect class="cls-1" x="38.24" y="29.33" width="73.53" height="91.34"/></clipPath></defs><title>ico_3</title><g class="cls-2"><rect class="cls-3" x="39.24" y="39.78" width="65.24" height="75.35"/></g><rect class="cls-4" x="44.91" y="45.45" width="53.9" height="64.01"/><rect class="cls-5" x="50.57" y="45.45" width="8.47" height="64.01"/><rect class="cls-5" x="63.38" y="45.45" width="2.42" height="64.01"/><rect class="cls-6" x="44.91" y="45.45" width="53.9" height="64.01"/><g class="cls-2"><path class="cls-5" d="M78.42,36.6c0-.1,0-.21,0-.31a6.59,6.59,0,0,0-13.17,0c0,.1,0,.21,0,.31H54.85V47.7h34V36.6Z"/><path class="cls-7" d="M78.42,36.6c0-.1,0-.21,0-.31a6.59,6.59,0,0,0-13.17,0c0,.1,0,.21,0,.31H54.85V47.7h34V36.6Z"/><path class="cls-8" d="M74,35.31a2.18,2.18,0,1,1-2.18-2.17A2.18,2.18,0,0,1,74,35.31"/><rect class="cls-8" x="50.57" y="57.75" width="5.02" height="3.86"/><rect class="cls-8" x="59.05" y="57.75" width="15.66" height="1.11"/><rect class="cls-8" x="76.43" y="57.75" width="15.66" height="1.11"/><rect class="cls-8" x="59.05" y="60.49" width="14.91" height="1.11"/><rect class="cls-8" x="50.57" y="66.92" width="5.02" height="3.86"/><rect class="cls-8" x="59.05" y="66.92" width="15.66" height="1.11"/><rect class="cls-8" x="76.43" y="66.92" width="15.66" height="1.11"/><rect class="cls-8" x="59.05" y="69.66" width="14.91" height="1.11"/><rect class="cls-8" x="50.57" y="76.09" width="5.02" height="3.86"/><rect class="cls-8" x="59.05" y="76.09" width="15.66" height="1.11"/><rect class="cls-8" x="76.43" y="76.09" width="15.66" height="1.11"/><rect class="cls-8" x="59.05" y="78.83" width="14.91" height="1.11"/><rect class="cls-8" x="50.57" y="84.56" width="5.02" height="3.86"/><rect class="cls-8" x="59.05" y="84.56" width="15.66" height="1.11"/><rect class="cls-8" x="76.43" y="84.56" width="15.66" height="1.11"/><rect class="cls-8" x="59.05" y="87.31" width="14.91" height="1.11"/><path class="cls-5" d="M111.39,107.71A12.59,12.59,0,1,1,98.8,95.12a12.59,12.59,0,0,1,12.59,12.59"/><path class="cls-7" d="M111.39,107.71A12.59,12.59,0,1,1,98.8,95.12,12.59,12.59,0,0,1,111.39,107.71Z"/><polyline class="cls-9" points="94.3 106.52 98.53 110.68 105.03 102.85"/></g></svg>