<svg id="Слой_1" data-name="Слой 1" xmlns="http://www.w3.org/2000/svg" xmlns:xlink="http://www.w3.org/1999/xlink" viewBox="0 0 150 150"><defs><style>.cls-1,.cls-5,.cls-6{fill:none;}.cls-2{fill:#ddf1fd;}.cls-3{fill:#fff;}.cls-4{clip-path:url(#clip-path);}.cls-5,.cls-6{stroke:#1d71b8;stroke-linecap:round;stroke-linejoin:round;}.cls-5{stroke-width:2px;}.cls-6{stroke-width:0.75px;}</style><clipPath id="clip-path"><rect class="cls-1" x="43.18" y="33.68" width="63.65" height="82.63"/></clipPath></defs><title>ico_8</title><rect class="cls-2" x="50.36" y="63.32" width="49.27" height="51.93"/><rect class="cls-3" x="57.42" y="35.59" width="10.54" height="79.66"/><rect class="cls-3" x="73.36" y="35.59" width="3.01" height="79.66"/><g class="cls-4"><rect class="cls-5" x="50.36" y="47.88" width="49.27" height="67.44"/><rect class="cls-5" x="44.18" y="34.69" width="61.65" height="13.19"/><line class="cls-6" x1="47.59" y1="34.68" x2="47.59" y2="47.88"/><line class="cls-6" x1="52.58" y1="34.68" x2="52.58" y2="47.88"/><line class="cls-6" x1="57.56" y1="34.68" x2="57.56" y2="47.88"/><line class="cls-6" x1="62.54" y1="34.68" x2="62.54" y2="47.88"/><line class="cls-6" x1="67.53" y1="34.68" x2="67.53" y2="47.88"/><line class="cls-6" x1="72.51" y1="34.68" x2="72.51" y2="47.88"/><line class="cls-6" x1="77.49" y1="34.68" x2="77.49" y2="47.88"/><line class="cls-6" x1="82.47" y1="34.68" x2="82.47" y2="47.88"/><line class="cls-6" x1="87.46" y1="34.68" x2="87.46" y2="47.88"/><line class="cls-6" x1="92.44" y1="34.68" x2="92.44" y2="47.88"/><line class="cls-6" x1="97.42" y1="34.68" x2="97.42" y2="47.88"/><line class="cls-6" x1="102.41" y1="34.68" x2="102.41" y2="47.88"/></g><rect class="cls-3" x="60.54" y="71.15" width="28.92" height="13.54"/><rect class="cls-6" x="60.54" y="71.15" width="28.92" height="13.54"/><line class="cls-6" x1="64.57" y1="75.69" x2="85.43" y2="75.69"/><line class="cls-6" x1="64.57" y1="80.14" x2="85.43" y2="80.14"/></svg>