<svg id="Слой_1" data-name="Слой 1" xmlns="http://www.w3.org/2000/svg" xmlns:xlink="http://www.w3.org/1999/xlink" viewBox="0 0 150 150"><defs><style>.cls-1,.cls-4,.cls-7,.cls-8,.cls-9{fill:none;}.cls-2{fill:#ddf1fd;}.cls-3{fill:#fff;}.cls-4,.cls-7{stroke:#00ace9;}.cls-4,.cls-7,.cls-8,.cls-9{stroke-linecap:round;stroke-linejoin:round;}.cls-5{clip-path:url(#clip-path);}.cls-6{clip-path:url(#clip-path-2);}.cls-7{stroke-width:0.5px;}.cls-8,.cls-9{stroke:#1d71b8;}.cls-8{stroke-width:2px;}.cls-9{stroke-width:0.75px;}.cls-10{fill:#00ace9;}.cls-11{fill:#1e71b8;}</style><clipPath id="clip-path"><path class="cls-1" d="M60.58,78a26,26,0,1,0,26-26,26,26,0,0,0-26,26"/></clipPath><clipPath id="clip-path-2"><rect class="cls-1" x="34.83" y="2.11" width="112.68" height="142.15"/></clipPath></defs><title>ico_5</title><polygon class="cls-2" points="57.82 34.93 41.5 51.26 41.5 111.43 102.14 111.43 102.14 34.93 57.82 34.93"/><rect class="cls-3" x="59.12" y="34.93" width="9.53" height="76.5"/><rect class="cls-3" x="73.53" y="34.93" width="2.72" height="76.5"/><polygon class="cls-4" points="57.82 34.93 41.5 51.26 41.5 112.49 102.14 112.49 102.14 34.93 57.82 34.93"/><polyline class="cls-4" points="41.5 51.26 59.12 51.26 59.12 34.93"/><g class="cls-5"><polygon class="cls-2" points="65.17 2.11 34.83 32.44 34.83 144.26 147.51 144.26 147.51 2.11 65.17 2.11"/><rect class="cls-3" x="67.58" y="2.11" width="17.71" height="142.15"/><rect class="cls-3" x="94.35" y="2.11" width="5.05" height="142.15"/></g><g class="cls-6"><path class="cls-7" d="M108.38,78A22.57,22.57,0,1,1,85.82,55.4,22.56,22.56,0,0,1,108.38,78Z"/><path class="cls-3" d="M106.46,93.24s2-1.16,4,1.22,14.34,14.65,14.34,14.65,2.77,5.25,0,8.41-6.9,2.18-10.67-1.59l-14.11-14.11a3.35,3.35,0,0,1,1.47-3.16,52.08,52.08,0,0,0,4.94-5.42"/><path class="cls-8" d="M107.94,92.23l16.89,16.88a6.18,6.18,0,1,1-8.74,8.75L99.2,101"/><line class="cls-9" x1="112.65" y1="108.62" x2="118.3" y2="114.28"/><line class="cls-9" x1="102.64" y1="98.62" x2="104.42" y2="100.4"/><line class="cls-9" x1="106.14" y1="102.12" x2="106.77" y2="102.75"/><line class="cls-9" x1="108.17" y1="104.15" x2="108.81" y2="104.78"/><line class="cls-9" x1="110.18" y1="106.15" x2="110.81" y2="106.79"/><path class="cls-8" d="M111.79,78a26,26,0,1,1-26-26A26,26,0,0,1,111.79,78Z"/><rect class="cls-10" x="71.01" y="71.73" width="9.94" height="7.61"/><rect class="cls-11" x="84.32" y="71.73" width="17.78" height="1.26"/><rect class="cls-11" x="84.32" y="78.43" width="17.78" height="1.26"/><rect class="cls-11" x="71.01" y="84.56" width="23.92" height="1.26"/><rect class="cls-11" x="71.01" y="81.5" width="31.09" height="1.26"/><rect class="cls-11" x="84.32" y="75.08" width="17.78" height="1.26"/></g></svg>