<svg id="Слой_1" data-name="Слой 1" xmlns="http://www.w3.org/2000/svg" xmlns:xlink="http://www.w3.org/1999/xlink" viewBox="0 0 150 150"><defs><style>.cls-1,.cls-4,.cls-5,.cls-6,.cls-7,.cls-8{fill:none;}.cls-2{clip-path:url(#clip-path);}.cls-3{fill:#ddf1fd;}.cls-4,.cls-5,.cls-7{stroke:#1d71b8;}.cls-4,.cls-5,.cls-6,.cls-7,.cls-8{stroke-linecap:round;stroke-linejoin:round;}.cls-4{stroke-width:2px;}.cls-6,.cls-8{stroke:#00ace9;}.cls-6,.cls-7{stroke-width:0.5px;}</style><clipPath id="clip-path"><rect class="cls-1" x="31.59" y="36.79" width="86.83" height="76.42"/></clipPath></defs><title>ico_4</title><g class="cls-2"><path class="cls-3" d="M41.73,49.11l11.64,0a2.26,2.26,0,0,0,2.26-2.28v-.24a2.27,2.27,0,0,0-2.27-2.27l-11.64,0a2.26,2.26,0,0,0-2.26,2.28v.24a2.27,2.27,0,0,0,2.27,2.27"/><path class="cls-3" d="M54,49.08l.12,46.71A6,6,0,0,1,48,101.65h0a6,6,0,0,1-6.11-5.84l-.13-46.7Z"/><path class="cls-4" d="M58,49.07l.13,49a8,8,0,0,1-8.11,7.82h0a8,8,0,0,1-8.15-7.78l-.13-49Z"/><path class="cls-4" d="M41.73,49.11l16.35,0a2.27,2.27,0,0,0,2.27-2.28v-.24a2.27,2.27,0,0,0-2.28-2.27l-16.35,0a2.26,2.26,0,0,0-2.26,2.28v.24A2.27,2.27,0,0,0,41.73,49.11Z"/><line class="cls-5" x1="58.07" y1="57.76" x2="49.93" y2="57.78"/><line class="cls-5" x1="58.11" y1="76.11" x2="49.98" y2="76.13"/><line class="cls-5" x1="58.09" y1="66.93" x2="54.02" y2="66.94"/><line class="cls-5" x1="58.14" y1="85.29" x2="54.07" y2="85.3"/><line class="cls-5" x1="58.16" y1="94.46" x2="50.03" y2="94.48"/><line class="cls-6" x1="45.44" y1="95.39" x2="45.45" y2="95.71"/><line class="cls-7" x1="45.44" y1="93.57" x2="45.44" y2="94.13"/><line class="cls-6" x1="45.34" y1="54.07" x2="45.43" y2="88.45"/><path class="cls-3" d="M66.83,49.11l11.64,0a2.27,2.27,0,0,0,2.26-2.28v-.24a2.27,2.27,0,0,0-2.28-2.27l-11.63,0a2.27,2.27,0,0,0-2.27,2.28v.24a2.28,2.28,0,0,0,2.28,2.27"/><path class="cls-3" d="M79.07,49.08l.13,46.71a6,6,0,0,1-6.08,5.86h0A6,6,0,0,1,67,95.81l-.12-46.7Z"/><path class="cls-4" d="M83.14,49.07l.13,49a8,8,0,0,1-8.11,7.82h0A8,8,0,0,1,67,98.07l-.13-49Z"/><path class="cls-4" d="M66.83,49.11l16.35,0a2.28,2.28,0,0,0,2.27-2.28v-.24a2.27,2.27,0,0,0-2.27-2.27l-16.35,0a2.27,2.27,0,0,0-2.27,2.28v.24A2.28,2.28,0,0,0,66.83,49.11Z"/><line class="cls-5" x1="83.16" y1="57.76" x2="75.03" y2="57.78"/><line class="cls-5" x1="83.21" y1="76.11" x2="75.08" y2="76.13"/><line class="cls-5" x1="83.19" y1="66.93" x2="79.12" y2="66.94"/><line class="cls-5" x1="83.24" y1="85.29" x2="79.17" y2="85.3"/><line class="cls-5" x1="83.26" y1="94.46" x2="75.13" y2="94.48"/><line class="cls-6" x1="70.54" y1="95.39" x2="70.54" y2="95.71"/><line class="cls-6" x1="70.52" y1="88.45" x2="70.53" y2="92.01"/><line class="cls-6" x1="70.45" y1="54.3" x2="70.46" y2="84.58"/><path class="cls-3" d="M91.93,49.11l11.63,0a2.27,2.27,0,0,0,2.27-2.28v-.24a2.28,2.28,0,0,0-2.28-2.27l-11.64,0a2.27,2.27,0,0,0-2.26,2.28v.24a2.27,2.27,0,0,0,2.28,2.27"/><path class="cls-3" d="M104.17,49.08l.12,46.71a6,6,0,0,1-6.08,5.86h0a6,6,0,0,1-6.11-5.84L92,49.11Z"/><path class="cls-4" d="M108.24,49.07l.13,49a8,8,0,0,1-8.11,7.82h0a8,8,0,0,1-8.15-7.78l-.13-49Z"/><path class="cls-4" d="M91.93,49.11l16.35,0a2.26,2.26,0,0,0,2.26-2.28v-.24a2.27,2.27,0,0,0-2.27-2.27l-16.36,0a2.27,2.27,0,0,0-2.26,2.28v.24A2.27,2.27,0,0,0,91.93,49.11Z"/><line class="cls-5" x1="108.26" y1="57.76" x2="100.13" y2="57.78"/><line class="cls-5" x1="108.31" y1="76.11" x2="100.17" y2="76.13"/><line class="cls-5" x1="108.28" y1="66.93" x2="104.22" y2="66.94"/><line class="cls-5" x1="108.33" y1="85.29" x2="104.27" y2="85.3"/><line class="cls-5" x1="108.36" y1="94.46" x2="100.22" y2="94.48"/><line class="cls-6" x1="95.64" y1="95.39" x2="95.64" y2="95.71"/><line class="cls-6" x1="95.62" y1="88.45" x2="95.63" y2="92.01"/><line class="cls-6" x1="95.57" y1="68.76" x2="95.57" y2="81.86"/><line class="cls-6" x1="95.53" y1="54.07" x2="95.54" y2="67.53"/><rect class="cls-8" x="32.09" y="57.48" width="85.83" height="55.23"/><line class="cls-8" x1="32.09" y1="94.43" x2="117.91" y2="94.43"/><rect class="cls-4" x="40.51" y="37.79" width="18.12" height="6.49"/><line class="cls-7" x1="43.14" y1="37.79" x2="43.14" y2="43.82"/><line class="cls-7" x1="45.74" y1="37.79" x2="45.74" y2="43.82"/><line class="cls-7" x1="48.34" y1="37.79" x2="48.34" y2="43.82"/><line class="cls-7" x1="50.94" y1="37.79" x2="50.94" y2="43.82"/><line class="cls-7" x1="53.53" y1="37.79" x2="53.53" y2="43.82"/><line class="cls-7" x1="56.13" y1="37.79" x2="56.13" y2="43.82"/><rect class="cls-4" x="65.7" y="37.79" width="18.12" height="6.49"/><line class="cls-7" x1="68.33" y1="37.79" x2="68.33" y2="43.82"/><line class="cls-7" x1="70.93" y1="37.79" x2="70.93" y2="43.82"/><line class="cls-7" x1="73.53" y1="37.79" x2="73.53" y2="43.82"/><line class="cls-7" x1="76.13" y1="37.79" x2="76.13" y2="43.82"/><line class="cls-7" x1="78.72" y1="37.79" x2="78.72" y2="43.82"/><line class="cls-7" x1="81.32" y1="37.79" x2="81.32" y2="43.82"/><rect class="cls-4" x="90.75" y="37.79" width="18.12" height="6.49"/><line class="cls-7" x1="93.38" y1="37.79" x2="93.38" y2="43.82"/><line class="cls-7" x1="95.98" y1="37.79" x2="95.98" y2="43.82"/><line class="cls-7" x1="98.58" y1="37.79" x2="98.58" y2="43.82"/><line class="cls-7" x1="101.18" y1="37.79" x2="101.18" y2="43.82"/><line class="cls-7" x1="103.77" y1="37.79" x2="103.77" y2="43.82"/><line class="cls-7" x1="106.37" y1="37.79" x2="106.37" y2="43.82"/></g></svg>