<svg id="Слой_1" data-name="Слой 1" xmlns="http://www.w3.org/2000/svg" xmlns:xlink="http://www.w3.org/1999/xlink" viewBox="0 0 150 150"><defs><style>.cls-1,.cls-10,.cls-4,.cls-5,.cls-6,.cls-7,.cls-9{fill:none;}.cls-2{clip-path:url(#clip-path);}.cls-3{fill:#ddf1fd;}.cls-10,.cls-4,.cls-5,.cls-6{stroke:#1d71b8;}.cls-10,.cls-4,.cls-5,.cls-6,.cls-7,.cls-9{stroke-linecap:round;stroke-linejoin:round;}.cls-4{stroke-width:2px;}.cls-6,.cls-7{stroke-width:0.5px;}.cls-7,.cls-9{stroke:#00ace9;}.cls-8{fill:#fff;}.cls-10{stroke-width:0.75px;}</style><clipPath id="clip-path"><rect class="cls-1" x="29.5" y="33.15" width="90.99" height="83.71"/></clipPath></defs><title>ico_9</title><g class="cls-2"><path class="cls-3" d="M64.88,40.53l14.24,0a3.18,3.18,0,1,0,0-6.36l-14.24,0a3.18,3.18,0,0,0,0,6.36"/><path class="cls-3" d="M80.18,40.51l.09,62a7.78,7.78,0,0,1-7.75,7.78h0a7.77,7.77,0,0,1-7.77-7.75l-.08-62Z"/><path class="cls-4" d="M85.36,40.5l.09,65a10.34,10.34,0,0,1-10.33,10.36h0a10.34,10.34,0,0,1-10.36-10.33l-.09-65Z"/><path class="cls-4" d="M64.88,40.53l20.25,0a3.18,3.18,0,0,0,0-6.35l-20.25,0a3.18,3.18,0,0,0,0,6.36Z"/><line class="cls-5" x1="85.38" y1="52.03" x2="75.02" y2="52.05"/><line class="cls-5" x1="85.41" y1="76.39" x2="75.05" y2="76.41"/><line class="cls-5" x1="85.39" y1="64.21" x2="80.22" y2="64.22"/><line class="cls-5" x1="85.43" y1="88.58" x2="80.25" y2="88.58"/><line class="cls-6" x1="68.09" y1="101.97" x2="68.09" y2="102.39"/></g><g class="cls-2"><line class="cls-6" x1="68.08" y1="99.54" x2="68.08" y2="100.3"/><line class="cls-6" x1="68.01" y1="47.11" x2="68.07" y2="98.28"/><path class="cls-7" d="M64.55,51.51l1,.18"/><path class="cls-7" d="M61.54,51c.57.08,1.15.16,1.73.26"/><path class="cls-7" d="M53.88,50.42c1.67,0,3.4.15,5.18.33"/><path class="cls-7" d="M46.75,50.75a47.42,47.42,0,0,1,5.32-.34"/><path class="cls-7" d="M118.49,84.6c1.91,4.1,2.33,8,.94,11.46-4.7,11.63-28.41,13-52.94,3.08s-40.62-27.39-35.92-39c1.26-3.12,3.89-5.5,7.54-7.13"/><path class="cls-7" d="M116.93,81.74c.19.29.36.59.53.88"/><path class="cls-7" d="M115.08,79.05l.53.72"/><path class="cls-7" d="M93.94,62c9.21,5,16.57,11.08,21.14,17.09"/><path class="cls-7" d="M91,60.4l1.61.83"/><path class="cls-6" d="M85.45,51.51l-1,.18"/><path class="cls-6" d="M88.47,51c-.58.08-1.15.16-1.74.26"/><path class="cls-6" d="M96.12,50.42c-1.67,0-3.4.15-5.18.33"/><path class="cls-6" d="M103.25,50.75a47.45,47.45,0,0,0-5.33-.34"/><path class="cls-6" d="M31.51,84.6c-1.91,4.1-2.32,8-.94,11.46,4.7,11.63,28.41,13,53,3.08s40.61-27.39,35.91-39c-1.26-3.12-3.89-5.5-7.54-7.13"/><path class="cls-6" d="M33.07,81.74c-.19.29-.36.59-.53.88"/><path class="cls-6" d="M34.92,79.05l-.53.72"/><path class="cls-6" d="M56.06,62C46.85,67,39.49,73,34.92,79.05"/><path class="cls-6" d="M59,60.4l-1.61.83"/><path class="cls-8" d="M94.92,80.81a9.59,9.59,0,0,1-19.18,0c0-5.29,9.59-19.48,9.59-19.48s9.59,14.19,9.59,19.48"/><path class="cls-3" d="M94.34,79.91a8.14,8.14,0,0,1-16.27,0c0-4.5,8.14-16.53,8.14-16.53s8.13,12,8.13,16.53"/><path class="cls-9" d="M95,80.81a9.59,9.59,0,0,1-19.18,0c0-5.29,9.59-19.48,9.59-19.48S95,75.52,95,80.81Z"/><path class="cls-10" d="M78.31,81.29c0-.16,0-.32,0-.48"/><path class="cls-10" d="M78.47,82.38l-.06-.26"/><path class="cls-10" d="M78.85,83.58l-.15-.39"/><path class="cls-10" d="M85.41,87.93a7.13,7.13,0,0,1-6.26-3.73"/></g></svg>