<svg id="Слой_1" data-name="Слой 1" xmlns="http://www.w3.org/2000/svg" xmlns:xlink="http://www.w3.org/1999/xlink" viewBox="0 0 18 18"><defs><style>.cls-1{fill:none;}.cls-2{clip-path:url(#clip-path);}.cls-3{fill:#229bd5;}</style><clipPath id="clip-path"><rect class="cls-1" width="18" height="18"/></clipPath></defs><title>lk</title><g class="cls-2"><path class="cls-3" d="M9,18a9,9,0,1,1,9-9A9,9,0,0,1,9,18ZM9,1.5A7.5,7.5,0,1,0,16.5,9,7.51,7.51,0,0,0,9,1.5Z"/><path class="cls-3" d="M9,10.85A3.25,3.25,0,1,1,12.25,7.6,3.26,3.26,0,0,1,9,10.85Zm0-5A1.75,1.75,0,1,0,10.75,7.6,1.76,1.76,0,0,0,9,5.85Z"/><path class="cls-3" d="M13.86,16.25a.75.75,0,0,1-.75-.75,4.11,4.11,0,0,0-8.22,0,.75.75,0,0,1-1.5,0,5.61,5.61,0,0,1,11.22,0A.76.76,0,0,1,13.86,16.25Z"/></g></svg>