<svg id="Слой_1" data-name="Слой 1" xmlns="http://www.w3.org/2000/svg" xmlns:xlink="http://www.w3.org/1999/xlink" viewBox="0 0 20 20"><defs><style>.cls-1{fill:none;}.cls-2{clip-path:url(#clip-path);}.cls-3{fill:#706f6f;}</style><clipPath id="clip-path"><rect class="cls-1" x="2.91" y="3.52" width="14.15" height="11.98"/></clipPath></defs><title>mail</title><g class="cls-2"><path class="cls-3" d="M16.56,15.5H3.42a.5.5,0,0,1-.5-.5V4a.5.5,0,0,1,.5-.5H16.56a.5.5,0,0,1,.5.5V15A.5.5,0,0,1,16.56,15.5Zm-12.64-1H16.06v-10H3.92Z"/><path class="cls-3" d="M10,10a.54.54,0,0,1-.32-.11L3.09,4.41a.5.5,0,0,1,.65-.77L10,8.86l6.25-5.22a.5.5,0,1,1,.64.77L10.31,9.9A.54.54,0,0,1,10,10Z"/></g></svg>