<svg id="Слой_1" data-name="Слой 1" xmlns="http://www.w3.org/2000/svg" xmlns:xlink="http://www.w3.org/1999/xlink" viewBox="0 0 20 20"><defs><style>.cls-1{fill:none;}.cls-2{clip-path:url(#clip-path);}.cls-3{fill:#706f6f;}</style><clipPath id="clip-path"><rect class="cls-1" x="4.32" y="1.71" width="11.36" height="16.58"/></clipPath></defs><title>metka</title><g class="cls-2"><path class="cls-3" d="M10,18.29h0a.48.48,0,0,1-.41-.22c-.22-.31-5.27-7.7-5.27-10.68a5.68,5.68,0,0,1,11.36,0c0,3-5,10.37-5.27,10.68A.49.49,0,0,1,10,18.29ZM10,2.71A4.69,4.69,0,0,0,5.32,7.39c0,2,3.07,7.08,4.68,9.51,1.61-2.43,4.68-7.49,4.68-9.51A4.69,4.69,0,0,0,10,2.71Z"/><path class="cls-3" d="M10,9.14a1.76,1.76,0,1,1,1.75-1.75A1.75,1.75,0,0,1,10,9.14Zm0-2.51a.76.76,0,1,0,.75.76A.75.75,0,0,0,10,6.63Z"/></g></svg>