<svg id="Слой_1" data-name="Слой 1" xmlns="http://www.w3.org/2000/svg" xmlns:xlink="http://www.w3.org/1999/xlink" viewBox="0 0 20 20"><defs><style>.cls-1{fill:none;}.cls-2{clip-path:url(#clip-path);}.cls-3{fill:#706f6f;}</style><clipPath id="clip-path"><rect class="cls-1" x="4.91" y="1.52" width="9.23" height="15.62"/></clipPath></defs><title>tel</title><g class="cls-2"><path class="cls-3" d="M13.65,17.14H5.42a.5.5,0,0,1-.5-.5V2a.5.5,0,0,1,.5-.5h8.23a.51.51,0,0,1,.5.5V16.64A.5.5,0,0,1,13.65,17.14Zm-7.73-1h7.23V2.52H5.92Z"/><path class="cls-3" d="M13.33,14.4H5.42a.5.5,0,0,1-.5-.5.5.5,0,0,1,.5-.5h7.91a.5.5,0,0,1,.5.5A.5.5,0,0,1,13.33,14.4Z"/><path class="cls-3" d="M13.33,4.38H5.42a.5.5,0,0,1-.5-.5.5.5,0,0,1,.5-.5h7.91a.5.5,0,0,1,.5.5A.5.5,0,0,1,13.33,4.38Z"/></g></svg>