<svg id="Слой_1" data-name="Слой 1" xmlns="http://www.w3.org/2000/svg" xmlns:xlink="http://www.w3.org/1999/xlink" viewBox="0 0 20 20"><defs><style>.cls-1{fill:none;}.cls-2{clip-path:url(#clip-path);}.cls-3{fill:#706f6f;}</style><clipPath id="clip-path"><rect class="cls-1" x="2.91" y="2.52" width="14.09" height="14.09"/></clipPath></defs><title>time</title><g class="cls-2"><path class="cls-3" d="M10,16.61a7,7,0,1,1,7-7A7.05,7.05,0,0,1,10,16.61ZM10,3.52a6,6,0,1,0,6,6.05A6.06,6.06,0,0,0,10,3.52Z"/><path class="cls-3" d="M12.18,11.88a.45.45,0,0,1-.31-.11L9.64,10a.49.49,0,0,1-.18-.38V4.81a.5.5,0,0,1,.5-.5.51.51,0,0,1,.5.5V9.33l2,1.67a.5.5,0,0,1-.32.88Z"/></g></svg>